HIERARCHY
ROOT Hips
{
	OFFSET -3.958830 18.904000 13.208200
	CHANNELS 6 Xposition Yposition Zposition Zrotation Yrotation Xrotation 
	JOINT LHipJoint
	{
		OFFSET 0.000000 0.000000 0.000000
		CHANNELS 3 Zrotation Yrotation Xrotation
		JOINT LeftUpLeg
		{
			OFFSET 1.800000 -1.400000 0.085000
			CHANNELS 3 Zrotation Yrotation Xrotation
			JOINT LeftLeg
			{
				OFFSET 2.215000 -6.000000 0.000000
				CHANNELS 3 Zrotation Yrotation Xrotation
				JOINT LeftFoot
				{
					OFFSET 2.500000 -6.900000 0.000000
					CHANNELS 3 Zrotation Yrotation Xrotation
					JOINT LeftToeBase
					{
						OFFSET 0.200000 -0.500000 1.950000
						CHANNELS 3 Zrotation Yrotation Xrotation
						End Site
						{
							OFFSET 0.000000 0.000000 0.000000
						}
					}
				}
			}
		}
	}
	JOINT RHipJoint
	{
		OFFSET 0.000000 0.000000 0.000000
		CHANNELS 3 Zrotation Yrotation Xrotation
		JOINT RightUpLeg
		{
			OFFSET -1.800000 -1.400000 0.085000
			CHANNELS 3 Zrotation Yrotation Xrotation
			JOINT RightLeg
			{
				OFFSET -2.215000 -6.000000 0.000000
				CHANNELS 3 Zrotation Yrotation Xrotation
				JOINT RightFoot
				{
					OFFSET -2.500000 -6.900000 0.000000
					CHANNELS 3 Zrotation Yrotation Xrotation
					JOINT RightToeBase
					{
						OFFSET -0.200000 -0.500000 1.950000
						CHANNELS 3 Zrotation Yrotation Xrotation
						End Site
						{
							OFFSET 0.000000 0.000000 0.000000
						}
					}
				}
			}
		}
	}
	JOINT LowerBack
	{
		OFFSET 0.000000 0.000000 0.000000
		CHANNELS 3 Zrotation Yrotation Xrotation
		JOINT Spine
		{
			OFFSET -0.087000 1.940000 -0.288900
			CHANNELS 3 Zrotation Yrotation Xrotation
			JOINT Spine1
			{
				OFFSET 0.000000 1.950000 0.060000
				CHANNELS 3 Zrotation Yrotation Xrotation
				JOINT Neck
				{
					OFFSET 0.000000 0.000000 0.000000
					CHANNELS 3 Zrotation Yrotation Xrotation
					JOINT Neck1
					{
						OFFSET 0.000000 1.600000 0.340000
						CHANNELS 3 Zrotation Yrotation Xrotation
						JOINT Head
						{
							OFFSET 0.000000 1.667000 -0.240000
							CHANNELS 3 Zrotation Yrotation Xrotation
							End Site
							{
								OFFSET 0.000000 0.000000 0.000000
							}
						}
					}
				}
				JOINT LeftShoulder
				{
					OFFSET 0.000000 0.000000 0.000000
					CHANNELS 3 Zrotation Yrotation Xrotation
					JOINT LeftArm
					{
						OFFSET 2.700000 1.550000 -0.730000
						CHANNELS 3 Zrotation Yrotation Xrotation
						JOINT LeftForeArm
						{
							OFFSET 5.450000 0.000000 0.000000
							CHANNELS 3 Zrotation Yrotation Xrotation
							JOINT LeftHand
							{
								OFFSET 3.450000 0.000000 0.000000
								CHANNELS 3 Zrotation Yrotation Xrotation
								JOINT LeftHandIndex1
								{
									OFFSET 0.750000 0.000000 0.000000
									CHANNELS 3 Zrotation Yrotation Xrotation
									End Site
									{
										OFFSET 0.000000 0.000000 0.000000
									}
								}
							}
						}
					}
				}
				JOINT RightShoulder
				{
					OFFSET 0.000000 0.000000 0.000000
					CHANNELS 3 Zrotation Yrotation Xrotation
					JOINT RightArm
					{
						OFFSET -2.700000 1.550000 -0.730000
						CHANNELS 3 Zrotation Yrotation Xrotation
						JOINT RightForeArm
						{
							OFFSET -5.450000 0.000000 0.000000
							CHANNELS 3 Zrotation Yrotation Xrotation
							JOINT RightHand
							{
								OFFSET -3.450000 0.000000 0.000000
								CHANNELS 3 Zrotation Yrotation Xrotation
								JOINT RightHandIndex1
								{
									OFFSET -0.750000 0.000000 0.000000
									CHANNELS 3 Zrotation Yrotation Xrotation
									End Site
									{
										OFFSET 0.000000 0.000000 0.000000
									}
								}
							}
						}
					}
				}
			}
		}
	}
}
MOTION
Frames: 12
Frame Time: 0.016667
0.215860 17.439760 -6.632660 -0.753268 -10.328667 -13.377945 -14.856383 12.316080 4.302590 2.580084 1.653912 29.018931 -14.182458 5.995279 -10.494484 1.201853 6.416703 2.182737 0.652690 0.571380 0.868550 18.797613 -9.825404 3.075085 9.559245 0.103121 -11.559547 4.820538 -3.231847 2.669030 -0.519037 -1.955921 3.491252 0.026180 -0.684680 0.037930 -4.755736 -1.912193 -8.478083 10.827351 -12.002881 31.515030 -15.435836 -8.565716 16.429359 1.935774 -4.698677 -21.523675 -24.670147 15.358719 52.325821 0.181970 10.262210 -20.925940 -16.967658 -29.477814 10.265928 -18.117319 -8.634086 -21.756326 62.874792 -46.502965 -32.637222 -3.893285 3.298268 0.665520 -0.608030 0.658190 -0.077080 13.019862 26.554563 16.602981 55.692236 -8.663818 -22.674474 60.509538 57.597141 18.267343 2.686982 -1.721724 0.218540 -0.143130 -0.443840 -0.164280 
0.219130 17.453730 -6.595040 -1.151465 -10.916606 -13.581176 -14.845877 12.315790 4.235123 2.532973 1.747518 29.217498 -13.102741 6.225221 -9.316444 1.168701 6.377747 2.182941 0.655640 0.570950 0.881010 18.808172 -9.824487 3.140714 9.743629 0.082431 -10.698959 5.167068 -3.205389 1.584311 -0.545807 -2.017108 3.470510 0.027300 -0.698350 0.028690 -4.787209 -1.866327 -8.460801 11.147738 -12.179060 32.100924 -15.168010 -8.792764 15.970921 1.801683 -4.856653 -21.541125 -25.365982 15.818224 52.509008 0.297420 10.271010 -21.725430 -16.834833 -29.049201 10.349365 -18.380512 -8.056624 -20.928490 60.235551 -44.872233 -30.340679 -3.763243 3.256270 0.683250 -0.622420 0.662940 -0.092480 13.246386 26.100868 16.386205 55.158590 -8.851185 -22.469726 61.930486 57.706316 19.056354 2.700847 -1.699965 0.213060 -0.135090 -0.437070 -0.175260 
0.244480 17.445820 -6.530350 -3.296603 -11.240295 -13.249399 -14.858233 12.313480 4.018412 3.787889 1.229853 29.251548 -11.164960 6.619666 -7.061148 1.109453 6.410143 2.187974 0.652440 0.554690 0.880500 18.835886 -9.653934 3.272685 11.318136 0.406502 -9.471408 5.351278 -2.994671 -0.836595 -0.577370 -2.108281 3.434625 0.041320 -0.669810 0.022500 -4.833083 -2.024978 -8.339376 13.982931 -13.708055 32.037386 -15.442222 -10.035446 16.453621 1.918864 -5.692248 -20.955574 -27.206293 16.400044 49.358805 0.319740 9.973470 -22.390270 -14.915168 -27.804989 10.625720 -19.958640 -9.032932 -19.715753 56.547619 -40.126502 -26.478231 -3.529875 3.198531 0.687990 -0.614590 0.640840 -0.092640 11.284300 24.516001 15.181154 54.264693 -7.391158 -21.403112 64.474059 57.249754 20.462289 2.704816 -1.717730 0.184230 -0.104750 -0.423150 -0.178570 
0.244570 17.431440 -6.439610 -4.273972 -12.804782 -12.573468 -14.909049 12.411842 3.944270 3.917020 1.167876 28.999457 -10.142152 6.784634 -5.762234 1.096678 6.363450 2.201402 0.642270 0.541430 0.874370 18.797109 -9.501273 3.379418 12.338756 0.673642 -8.653018 5.901374 -2.916128 -1.910638 -0.588004 -2.158952 3.422627 0.035030 -0.678100 0.005990 -4.716048 -2.351871 -8.325848 14.773589 -13.945704 31.788230 -14.987056 -10.352198 15.333596 2.307866 -5.966739 -21.148909 -28.598782 17.403079 48.843641 -0.270720 10.327240 -21.403980 -14.863837 -26.511600 10.768978 -20.995097 -7.887077 -18.043902 52.523808 -36.731675 -22.659971 -3.338316 3.181957 0.684490 -0.619850 0.631480 -0.097120 10.632749 23.620203 14.937685 53.778451 -7.805525 -20.684541 68.591780 58.096609 23.216637 2.750117 -1.730061 0.178580 -0.111000 -0.423050 -0.181460 
0.238900 17.433770 -6.355180 -5.643099 -14.733710 -12.275469 -14.989517 12.570577 3.861744 4.218853 1.046889 28.892831 -8.881526 6.994776 -3.911393 1.099837 6.330284 2.202228 0.676180 0.585860 0.883450 18.728084 -9.317680 3.494197 13.826966 0.941058 -7.287345 6.180694 -2.962840 -2.020679 -0.633094 -2.238770 3.388175 0.047270 -0.699630 0.024930 -4.508726 -2.813283 -8.304422 15.330467 -14.042329 32.104877 -13.876228 -10.470087 15.366759 2.682086 -6.448286 -21.266861 -30.479836 18.243647 48.039181 -1.168630 10.281670 -21.660410 -14.170212 -25.766388 11.147705 -22.808590 -7.470268 -16.764442 48.841768 -31.952002 -19.045231 -3.170485 3.230539 0.677060 -0.631320 0.655450 -0.082400 9.458560 23.447639 14.571129 52.183096 -7.183209 -20.001767 72.418343 57.886461 25.109333 2.788540 -1.753087 0.213320 -0.127260 -0.440630 -0.165780 
0.233730 17.433270 -6.271660 -6.858742 -16.722599 -12.026205 -15.078293 12.721986 3.807594 4.485230 0.961298 28.998997 -8.100846 7.157924 -2.546303 1.097743 6.361129 2.185948 0.701930 0.607690 0.908510 18.653528 -9.123241 3.581108 15.170724 1.166601 -6.015656 6.441966 -3.067135 -1.614538 -0.668390 -2.304941 3.350840 0.057420 -0.716700 0.034990 -4.281802 -3.308039 -8.292877 15.752586 -13.903257 32.735835 -12.552648 -10.401969 15.331074 2.873113 -6.926902 -21.242563 -32.709645 19.079189 46.771957 -1.787360 10.050380 -22.277820 -13.349952 -24.952064 11.403631 -24.763590 -7.698942 -14.996734 44.797351 -26.554285 -15.348904 -3.048947 3.255003 0.682810 -0.646110 0.672030 -0.084060 8.540988 23.042458 14.128792 50.566354 -6.828261 -19.525023 75.999031 58.095126 27.195747 2.824591 -1.757408 0.228190 -0.128040 -0.448590 -0.163140 
0.216840 17.417520 -6.184200 -7.771406 -17.955364 -11.792616 -15.200973 12.983413 3.794580 5.018708 0.786085 28.940744 -7.520720 7.297425 -1.369990 1.047399 6.471267 2.137669 0.678410 0.548390 0.924700 18.533756 -8.882123 3.647698 16.265359 1.449620 -5.127632 6.299765 -3.196214 -0.639962 -0.671345 -2.317527 3.324771 0.038680 -0.717930 0.048760 -3.910574 -4.055593 -8.355327 14.870293 -13.285490 33.193251 -10.759182 -10.127199 15.162590 3.275443 -6.756175 -21.521934 -33.275305 20.085495 47.410647 -2.195700 10.452830 -22.357790 -13.768251 -24.591374 11.605391 -25.720946 -6.807314 -13.466642 41.152172 -22.757722 -12.578989 -3.022818 3.230615 0.731890 -0.647120 0.673310 -0.120420 8.286567 23.066819 14.238494 49.205337 -7.497499 -19.384852 81.981062 59.282720 31.165524 2.871405 -1.702885 0.197660 -0.123060 -0.408270 -0.197410 
0.194960 17.398110 -6.094620 -8.817414 -19.266707 -11.191512 -15.298551 13.203335 3.769182 5.502250 0.639744 28.575921 -7.064635 7.392870 -0.198571 1.036789 6.494357 2.098175 0.663010 0.522650 0.911280 18.436639 -8.682070 3.728092 17.389426 1.783067 -4.519589 6.404638 -3.331768 0.386550 -0.670456 -2.343341 3.296042 0.014710 -0.740000 0.075420 -3.607012 -4.667005 -8.404332 14.733001 -12.847797 33.489190 -9.427035 -9.868230 13.631361 3.801640 -6.617378 -21.658486 -34.010543 21.267012 48.074933 -2.521160 10.902970 -21.562410 -14.659737 -23.412882 11.702515 -26.903868 -3.963054 -12.200100 37.137313 -23.256736 -11.116332 -2.943180 3.233681 0.745030 -0.652110 0.679850 -0.148490 8.295550 22.504129 14.241944 48.403920 -8.332710 -18.804153 87.837828 59.688510 35.319453 2.939584 -1.677846 0.215350 -0.170170 -0.381640 -0.204490 
0.173900 17.382760 -6.013920 -9.044402 -20.401395 -11.060506 -15.425071 13.465810 3.785331 5.330865 0.734838 28.460480 -6.237198 7.427033 0.833999 1.020508 6.501928 2.085255 0.660240 0.501170 0.935170 18.310132 -8.474761 3.774131 18.055554 1.944932 -3.853206 5.744997 -3.386956 1.338261 -0.673429 -2.330080 3.300823 -0.001670 -0.764820 0.075330 -3.200971 -5.392448 -8.494664 12.874342 -11.965970 33.938930 -7.608777 -9.475872 13.062206 4.315858 -6.313657 -22.031283 -34.285253 22.328494 49.430091 -3.725820 11.622820 -21.466750 -15.208372 -22.835606 12.047396 -27.399146 -1.422851 -10.796461 32.618225 -21.731435 -8.984922 -2.878281 3.198389 0.778090 -0.663970 0.694390 -0.165590 7.954400 22.572363 14.344086 47.964599 -8.618487 -18.703314 93.146683 60.270536 39.284730 3.005350 -1.616429 0.208450 -0.175100 -0.376110 -0.227370 
0.153930 17.380580 -5.943750 -9.149408 -21.608435 -11.507876 -15.583866 13.747956 3.818723 5.162509 0.890760 28.800503 -5.443501 7.477998 1.790536 1.030388 6.538988 2.051237 0.695520 0.526300 0.997540 18.155810 -8.239320 3.798621 18.235040 1.944491 -2.538716 5.884563 -3.526366 2.104937 -0.726601 -2.382650 3.253327 0.002310 -0.832950 0.088640 -2.694725 -6.212807 -8.623663 10.217373 -10.538351 35.004940 -5.204648 -8.755153 13.454445 4.685851 -5.873548 -22.362282 -34.032421 22.932299 51.285473 -5.086140 12.007150 -22.990840 -15.943638 -22.915866 12.414569 -27.393147 0.220552 -9.692287 29.220067 -19.317743 -7.228319 -2.813651 3.188871 0.820100 -0.704690 0.748000 -0.182720 8.003418 23.219603 14.595600 47.139806 -9.093313 -19.273783 100.644933 61.227636 45.148904 3.107890 -1.524967 0.226240 -0.194650 -0.396140 -0.251120 
0.147460 17.383980 -5.862990 -9.947400 -22.552146 -11.560773 -15.748250 14.014442 3.837380 5.021587 0.917841 28.987443 -4.423872 7.424841 2.171299 1.047039 6.548845 2.042005 0.712050 0.547130 1.022130 18.011040 -7.941124 3.826975 18.897404 2.014608 -1.338696 6.414713 -3.726087 3.199115 -0.762089 -2.457460 3.221874 0.007220 -0.862800 0.081810 -2.207558 -7.113805 -8.738651 9.060667 -9.791314 35.844706 -3.206207 -8.520523 13.553796 5.304970 -5.659560 -22.767433 -35.144787 23.456865 51.917890 -6.302790 11.529930 -23.377460 -16.900221 -23.091904 12.942115 -28.290712 1.687574 -8.508351 26.611899 -16.073704 -5.628840 -2.772175 3.158945 0.829950 -0.726080 0.773180 -0.186590 7.824756 23.919490 14.804143 46.214973 -9.767937 -19.911193 107.821384 61.452690 51.018384 3.161955 -1.439682 0.237840 -0.184990 -0.406760 -0.250990 
0.144250 17.377020 -5.774300 -10.770644 -23.353516 -10.731659 -15.889796 14.246347 3.849533 4.698814 0.902794 28.184123 -3.957643 7.317012 2.339341 1.051333 6.442097 2.054517 0.745830 0.589750 1.052620 17.884596 -7.682547 3.868534 19.677518 2.105493 -0.702031 7.094789 -3.900876 4.066014 -0.805712 -2.491090 3.200478 0.007850 -0.916830 0.089590 -1.788405 -7.901530 -8.857640 8.321243 -9.452596 35.829627 -1.520430 -8.483203 12.087931 6.099615 -5.099300 -23.184203 -35.679398 24.940631 54.002030 -7.252830 12.010390 -23.976720 -19.296404 -22.789988 13.309351 -28.864720 4.577438 -7.534980 24.602849 -13.317994 -4.242196 -2.726100 3.149391 0.850790 -0.759620 0.819950 -0.187510 8.804221 24.019693 14.890078 44.414008 -10.837330 -19.533635 113.408148 61.144334 56.479505 3.176952 -1.386118 0.272010 -0.205090 -0.429170 -0.252110 
